<svg width="600" height="614" viewBox="0 0 600 614" fill="none" xmlns="http://www.w3.org/2000/svg">
<path d="M138.096 282.782L197.868 342.564" stroke="white" stroke-width="5" stroke-miterlimit="10"/>
<path d="M402.1 342.564L461.906 282.782" stroke="white" stroke-width="5" stroke-miterlimit="10"/>
<path d="M303.488 437.46V377.678" stroke="white" stroke-width="5" stroke-miterlimit="10"/>
<path d="M563.987 341.407C564.013 408.278 538.631 472.663 492.976 521.541C447.321 570.418 384.8 600.139 318.057 604.693C312.112 605.102 306.087 605.306 299.983 605.306C247.768 605.306 196.725 589.828 153.31 560.831C109.895 531.833 76.0566 490.618 56.0748 442.397C36.0929 394.176 30.8647 341.114 41.0514 289.923C51.2381 238.732 76.382 191.709 113.304 154.803C150.225 117.896 197.266 92.7618 248.478 82.5792C299.69 72.3966 352.772 77.6226 401.013 97.5965C449.253 117.57 490.485 151.395 519.494 194.793C548.503 238.191 563.987 289.213 563.987 341.407V341.407Z" stroke="white" stroke-width="5" stroke-miterlimit="10"/>
<path d="M6.19531 5.81787C48.6756 51.0372 154.025 149.166 299.983 149.166C445.941 149.166 551.427 51.0372 593.805 5.81787" stroke="#11CBD7" stroke-width="5" stroke-miterlimit="10"/>
</svg>
